<svg fill="#ffffff" role="img" viewBox="0 0 24 24" xmlns="http://www.w3.org/2000/svg"><title>Groq</title><path d="M12 0C5.373 0 0 5.373 0 12s5.373 12 12 12 12-5.373 12-12S18.627 0 12 0zm-.385 5.077h4.953a3.692 3.692 0 0 1 3.693 3.692v6.462a3.692 3.692 0 0 1-3.693 3.692h-4.337a.308.308 0 0 1-.308-.308v-1.538c0-.17.138-.308.308-.308h4.337c1.022 0 1.846-.824 1.846-1.846V8.77c0-1.023-.824-1.846-1.846-1.846h-4.953a.308.308 0 0 1-.308-.308V5.385c0-.17.138-.308.308-.308zm-4.184.308c0-.17.138-.308.308-.308h1.538c.17 0 .308.138.308.308v7.384a3.692 3.692 0 0 1-3.693 3.693H4.354a.308.308 0 0 1-.308-.308v-1.538c0-.17.138-.308.308-.308h1.538c1.023 0 1.847-.824 1.847-1.847V5.385z"/></svg>
